# xmcd CD database file
#
# Track frame offsets:
#	150
#	14775
#	24375
#	34315
#	48468
#	62118
#	74113
#	87808
#	99430
#	112420
#	128000
#	137540
#
# Disc length: 1980 seconds
#
# Revision: 0
# Processed by: cddbd v1.5.1PL0 Copyright (c) Steve Scherf et al.
# Submitted via: CDex 1.51
#
DISCID=af07ba0c
DTITLE=Various Artist - Gospel Country
DYEAR=1988
DGENRE=Country
TTITLE0=Sandy Posey/Put Your Hand In The Hand
TTITLE1=Skeeter Davis/Turn Your Radio On
TTITLE2=David Houston/Church In The Wildwood
TTITLE3=Susan Raye/You Can't Be A Beacon (If Your Light Don't Shine)
TTITLE4=Johnny Darrell/Little Delta Church
TTITLE5=Bill Phillips/I Saw The Light
TTITLE6=Bobby Helms/What A Friend We Have In Jesus
TTITLE7=Ned Miller/Will The Circle Be Unbroken
TTITLE8=David Houston/In The Garden
TTITLE9=Jack Greene/Why Me, Lord
TTITLE10=Jeannie C. Riley/I Don't Deserve A Mansion
TTITLE11=Stoney Cooper and Wilma Lee/Keep On The Sunny Side
EXTD=YEAR: 1988
EXTT0=
EXTT1=
EXTT2=
EXTT3=
EXTT4=
EXTT5=
EXTT6=
EXTT7=
EXTT8=
EXTT9=
EXTT10=
EXTT11=
PLAYORDER=
